Coordinates
version=1
nRows=6
nColumns=34
inDegrees=yes

Units are S.I. units (second, meters, Newtons, ...)
If the header above contains a line with 'inDegrees', this indicates whether rotational values are in degrees (yes) or radians (no).

endheader
time	pelvis_tilt	pelvis_list	pelvis_rotation	pelvis_tx	pelvis_ty	pelvis_tz	hip_flexion_r	hip_adduction_r	hip_rotation_r	knee_angle_r	ankle_angle_r	subtalar_angle_r	mtp_angle_r	hip_flexion_l	hip_adduction_l	hip_rotation_l	knee_angle_l	ankle_angle_l	subtalar_angle_l	mtp_angle_l	lumbar_extension	lumbar_bending	lumbar_rotation	arm_flex_r	arm_add_r	arm_rot_r	elbow_flex_r	pro_sup_r	arm_flex_l	arm_add_l	arm_rot_l	elbow_flex_l	pro_sup_l
     11.45000000	      4.21435011	      1.37137690	      3.67355804	      0.90950298	      0.93131563	     -0.08625898	     -4.29553858	     -3.98905248	    -25.29858604	      0.00000000	      5.78450663	     -0.86842028	      0.00000000	     -3.61131471	     -1.88976181	    -23.20623930	      0.00000000	      5.00602046	      5.81934184	      0.00000000	     -7.51564288	     -0.22164256	     -1.81297949	      7.85998725	     -6.17244921	     18.73740185	     24.28693287	     76.38678561	     11.42954866	     -7.39084913	     10.79723349	     24.05723174	     71.72765482
     11.46666670	      4.14693142	      1.36171428	      3.65679148	      0.91069247	      0.93473831	     -0.08645522	     -4.19086365	     -3.98496244	    -25.37051110	      0.00000000	      5.76321328	     -0.91754407	      0.00000000	     -3.54298878	     -1.90140196	    -23.20940614	      0.00000000	      5.00587714	      5.80645108	      0.00000000	     -7.63269922	     -0.22358090	     -1.72035032	      7.89045176	     -6.22190666	     18.74064667	     24.26914339	     76.38900200	     11.33506358	     -7.49310563	     10.72653481	     24.00604598	     71.70526354
     11.48333330	      4.14022575	      1.36156142	      3.65986377	      0.91031618	      0.93314247	     -0.08639059	     -4.18971082	     -3.98410143	    -25.37085311	      0.00000000	      5.76264620	     -0.91785290	      0.00000000	     -3.55359252	     -1.90116629	    -23.20997315	      0.00000000	      5.00557060	      5.80617469	      0.00000000	     -7.63269286	     -0.22331046	     -1.71984158	      7.89056396	     -6.22249148	     18.74075227	     24.26896102	     76.38904299	     11.33436904	     -7.49329189	     10.72555441	     24.00587108	     71.70492438
     11.50000000	      4.12883783	      1.36845052	      3.66910518	      0.91063828	      0.93484345	     -0.08565553	     -4.18483666	     -3.98191265	    -25.37200898	      0.00000000	      5.76057436	     -0.91968921	      0.00000000	     -3.55594960	     -1.90797018	    -23.21123973	      0.00000000	      5.00436995	      5.80495845	      0.00000000	     -7.63094354	     -0.22178563	     -1.71619566	      7.89380096	     -6.22631903	     18.74091209	     24.26922681	     76.38919953	     11.33234279	     -7.49599355	     10.72079107	     24.00528448	     71.70336346
     11.51666670	      4.11813180	      1.36218229	      3.66363551	      0.91037435	      0.93351512	     -0.08631232	     -4.20295250	     -3.97833504	    -25.37701358	      0.00000000	      5.75779456	     -0.92283646	      0.00000000	     -3.54318109	     -1.90660072	    -23.21316885	      0.00000000	      5.00331600	      5.80404211	      0.00000000	     -7.63032346	     -0.22282517	     -1.71047352	      7.89746236	     -6.22823627	     18.74116435	     24.26978851	     76.38934068	     11.32983614	     -7.50223159	     10.71620593	     24.00385816	     71.70195269
     11.53333330	      4.11954669	      1.36163144	      3.66437611	      0.91028595	      0.93054594	     -0.08636669	     -4.20378276	     -3.97492560	    -25.37840489	      0.00000000	      5.75674839	     -0.92343537	      0.00000000	     -3.54775688	     -1.90392059	    -23.21389082	      0.00000000	      5.00298228	      5.80394995	      0.00000000	     -7.63119325	     -0.22263344	     -1.70947510	      7.89828477	     -6.22910937	     18.74114487	     24.26968595	     76.38935200	     11.32957872	     -7.50346579	     10.71522309	     24.00355476	     71.70164711
